#!OML:ASF F:\VICON\USERDATA\INSTALL\rory3\rory3.ASF
:FULLY-SPECIFIED
:DEGREES
136
root 1.3281799191986092 17.93694782034044 46.30050278079314 -3.6755295255642917 0.5121701992399944 -2.2755404921725413
lfemur 3.4953172236524583 -3.0247468346406405 -19.74513271298293
ltibia 54.017301614440534
lfoot -14.119577107484584 -4.3872044380172355
ltoes -17.65693633777646
rfemur -11.109374669342065 2.2509023846732736 26.403008680177496
rtibia 20.25373215175644
rfoot -0.426712756822055 -7.72782605281033
rtoes 3.670991132137355
lowerback 10.161431799680946 -0.7508057897651452 0.9835160394994613
upperback -0.22024137683759304 -0.7935248692394192 2.2437345383435012
thorax -5.970307890362351 -0.41837020376503276 2.550538892061896
lowerneck -16.597698851833076 -3.3857097740607385 -1.5871935256675571
upperneck 21.607076293647165 -4.6037137932510435 0.7972436410513642
head 9.662552469499815 -2.1741064691849914 -0.0694767761035189
lclavicle -2.7003079518239654e-15 -2.1517147062541275e-15
lhumerus -29.188093549720087 2.4111129045604454 81.21108538285176
lradius 25.627686077872532
lwrist 10.647876492068272
lhand -29.88692058814973 19.320040846723085
lfingers 7.125020000000001
lthumb -3.0901887715198177 49.84742998077652
rclavicle -2.7003079517822796e-15 -2.1517147062251483e-15
rhumerus -30.56952185194865 -18.292374396130967 -76.53287197204092
rradius 25.95201477103484
rwrist 5.24427947514798
rhand -18.037644610546153 22.398822555591043
rfingers 7.125020000000001
rthumb 8.166248079676684 -6.5810081923499
137
root 1.303570150128531 17.92413552785053 46.89138110132194 -3.7954564457955264 0.6385084200498158 -2.088827726904475
lfemur 3.0628636695363554 -2.9905020269889357 -19.898488191659865
ltibia 54.108617648354425
lfoot -14.300293302587994 -4.462254269906996
ltoes -17.105157981297566
rfemur -11.32546053733782 1.994085369564939 26.030760769824738
rtibia 21.260540123463496
rfoot -0.14081337499544322 -7.814817659196842
rtoes 4.876183385104931
lowerback 10.23060371377045 -0.7003261132416498 0.7543636929580693
upperback -0.1731160560622938 -0.7427692700905604 2.213870503522164
thorax -5.978606902486633 -0.3823150910062374 2.493357717185474
lowerneck -16.607922207675614 -3.3902633218283236 -1.5757624858112727
upperneck 21.53134453366269 -4.62383927141274 0.8445218210994312
head 9.632553863385937 -2.181478685897687 -0.05723583404684776
lclavicle -2.700307951820949e-15 -2.1517147062521293e-15
lhumerus -28.60406744413644 2.131511797504749 81.23025510078095
lradius 25.849124621417467
lwrist 11.0453831919284
lhand -29.989823570351472 19.589871994498328
lfingers 7.125020000000001
lthumb -3.2173901335172874 50.05924151546946
rclavicle -2.700307951788138e-15 -2.1517147062292567e-15
rhumerus -30.628967220448008 -18.400218976513287 -76.68341933773961
rradius 25.855943235916143
rwrist 5.544001947442563
rhand -18.00882414528654 22.359956219595723
rfingers 7.125020000000001
rthumb 8.162558859286033 -6.707817857484716
138
root 1.2963624590475102 17.91223322612785 47.3451422528607 -3.883835834254061 0.8135540341435312 -1.9353987113203976
lfemur 2.5366204358334468 -2.894714704739452 -19.912420641687095
ltibia 54.209784867736175
lfoot -14.446398382885764 -4.480765288568409
ltoes -13.010287883239888
rfemur -11.713699077493235 1.6638428873971058 25.62493282405101
rtibia 22.259544016292995
rfoot 0.02365722742907117 -7.967201009298536
rtoes 5.62234513689446
lowerback 10.317311348779937 -0.6944303614745371 0.5613602368569651
upperback -0.13246058448447998 -0.7722664938887063 2.1662420259987236
thorax -5.9717764810444836 -0.3753077057975628 2.5253597080047805
lowerneck -16.57862442424187 -3.3909194329610544 -1.5845600595666376
upperneck 21.467043471985534 -4.622497246906284 0.9010294970573848
head 9.571590144079137 -2.1829853722598647 -0.021369520309563267
lclavicle -2.70030795181511e-15 -2.1517147062482197e-15
lhumerus -28.15605894305504 1.7841163578560595 81.2518928200914
lradius 26.05336829751918
lwrist 11.293038150240696
lhand -29.961757616070546 19.725891178218934
lfingers 7.125020000000001
lthumb -3.2325049815637947 50.09342572684208
rclavicle -2.7003079517743954e-15 -2.151714706219902e-15
rhumerus -30.683884783608573 -18.543431807341683 -76.83421932690428
rradius 25.74498033070774
rwrist 5.756232534945999
rhand -18.046359276159016 22.19183257344423
rfingers 7.125020000000001
rthumb 8.183910748310273 -6.88234887703554
139
root 1.2907195627789103 17.898316501607194 47.95655648250312 -4.059643668683837 0.9295220852716057 -1.5627210919384906
lfemur 2.414046006455674 -2.7858040804192563 -20.034776361967882
ltibia 54.224070595535764
lfoot -14.571363442256775 -4.515856167695971
ltoes -9.28533563177692
rfemur -12.239614519077637 1.3410591580464901 25.089389472240775
rtibia 23.327845959155617
rfoot 0.028481767852769124 -8.207259514947511
rtoes 6.87991288436091
lowerback 10.404049303082957 -0.6835463893638163 0.22165541249961263
upperback -0.09073093727233823 -0.8262920725943685 2.1013243480168913
thorax -5.979535928662191 -0.3971336096063812 2.5566464572801717
lowerneck -16.601832191712397 -3.3893339220334004 -1.5707001843796256
upperneck 21.39156681589981 -4.621887319204633 0.990471896213351
head 9.549361428407389 -2.1798887623606076 0.007605462252810308
lclavicle -2.70030795182005e-15 -2.1517147062516717e-15
lhumerus -27.63448419561744 1.5413373057098427 81.30563804838468
lradius 26.2045127249741
lwrist 10.94540601076309
lhand -29.9028101844755 19.427130716306944
lfingers 7.125020000000001
lthumb -3.1989771737852863 49.76558300731437
rclavicle -2.7003079517768254e-15 -2.1517147062215692e-15
rhumerus -30.718908572402558 -18.729911731049146 -76.96591471824007
rradius 25.589622513984608
rwrist 6.04956340780196
rhand -18.020760873251252 22.10497944849691
rfingers 7.125020000000001
rthumb 8.145335025506155 -7.109358096611101
140
root 1.2808051140661034 17.892076262280614 48.533136622282285 -4.06053343260328 1.041298281341898 -1.4133063325389394
lfemur 2.749628799179291 -2.7604344132373906 -20.134247210248663
ltibia 53.947966522992715
lfoot -14.75716590409966 -4.543330247011929
ltoes -7.5157522387648426
rfemur -12.81288469012499 1.0831241157822562 24.771393345607585
rtibia 24.00212029679736
rfoot 0.09198016217942495 -8.484971801044322
rtoes 7.226256883148488
lowerback 10.45809437861341 -0.6769688913557466 0.04660892904286684
upperback -0.07400901931396853 -0.8291246313879981 2.07064784986341
thorax -6.040924815479869 -0.4089914750563337 2.513519194667696
lowerneck -16.582526003898074 -3.381973699969414 -1.5650077472271413
upperneck 21.333531155973596 -4.613175944987181 1.0456125451153588
head 9.50227579556897 -2.176386996240529 0.03573276963954916
lclavicle -2.7003079518191076e-15 -2.151714706251132e-15
lhumerus -27.186205237871977 1.43094246282751 81.35444302086866
lradius 26.279621142486384
lwrist 10.485125761785255
lhand -29.850916426427272 19.499242612186674
lfingers 7.125020000000001
lthumb -3.070001114053068 50.05750080094021
rclavicle -2.7003079517791506e-15 -2.1517147062232183e-15
rhumerus -30.769935879823578 -19.049763514320176 -77.09848910746315
rradius 25.489986792258883
rwrist 6.218323574147545
rhand -18.00598358327542 22.01828442391442
rfingers 7.125020000000001
rthumb 8.208292450972742 -7.107046777005856
141
root 1.2620415366690338 17.87238332913205 48.571428144093076 -4.24089953196248 0.9725316362437004 -1.0231660361690376
lfemur 3.096730061794606 -2.7399595617203176 -20.471843760373005
ltibia 53.479319150327704
lfoot -15.007569394988938 -4.5645845281094966
ltoes -9.018596985832824
rfemur -13.57571529681849 0.8740361685735774 24.23652064096668
rtibia 25.10439360213134
rfoot 0.20189289910480746 -8.753632065416296
rtoes 8.463768539888513
lowerback 10.527116503609072 -0.6433434232296822 -0.3546055331187631
upperback -0.025792677138168837 -0.8534855934229479 2.0099555052775493
thorax -6.040678714232305 -0.4145687179861437 2.577232299930338
lowerneck -16.611146692000517 -3.38078082219819 -1.5656553320770272
upperneck 21.347259730773253 -4.6129712480697735 1.0956766445173227
head 9.505037050714353 -2.176169306757798 0.04955813490247635
lclavicle -2.7003079518157597e-15 -2.151714706248931e-15
lhumerus -26.956595135439553 1.2807837402323394 81.44233142624363
lradius 26.37683042821099
lwrist 10.231082266765632
lhand -29.891688118280637 19.19177046628912
lfingers 7.125020000000001
lthumb -3.12701560708892 49.65596134157326
rclavicle -2.700307951783983e-15 -2.1517147062266613e-15
rhumerus -30.933155773307856 -19.523552939677355 -77.33553855293545
rradius 25.45285574829446
rwrist 6.478721471716469
rhand -18.01036180021415 21.903777439756524
rfingers 7.125020000000001
rthumb 8.193092492446857 -7.2141767419440965
142
root 1.2524906217733074 17.871830749619807 49.08813295844753 -4.050872899289381 1.0671735233264874 -1.0699677639251615
lfemur 2.953999656479212 -2.7021020626120347 -20.405625435979882
ltibia 53.0487654452419
lfoot -15.282198370783657 -4.493119454906946
ltoes -8.632501315269735
rfemur -14.337392215245234 0.6842658387419025 24.027596345890288
rtibia 25.3264073719031
rfoot 0.3794664255624518 -8.955903511787842
rtoes 8.141140528912922
lowerback 10.518660383589333 -0.6872980459342297 -0.40238412281481384
upperback -0.031249190326287785 -0.8995412700527807 2.0099566030383604
thorax -6.080117166278649 -0.4338995844481027 2.639348294549958
lowerneck -16.692667738643955 -3.3813800905509033 -1.5396583135554642
upperneck 21.366694494680686 -4.614581938295006 1.0909020601058879
head 9.551787492475686 -2.171710706288265 0.027393882518147505
lclavicle -2.7003079518184004e-15 -2.1517147062508864e-15
lhumerus -26.667208935736202 1.3872478734084686 81.6264513115568
lradius 26.48047181974789
lwrist 10.126334634672425
lhand -29.84395232405511 19.635240834136674
lfingers 7.125020000000001
lthumb -3.019572274919166 50.27489684078635
rclavicle -2.7003079517751223e-15 -2.1517147062208466e-15
rhumerus -31.074936467963184 -19.85528928728772 -77.48542570622143
rradius 25.506886267591714
rwrist 6.30151289289384
rhand -18.026164058832663 21.8011983171035
rfingers 7.125020000000001
rthumb 8.21877772306993 -7.342177069861796
143
root 1.238951242687639 17.87529967735979 49.02209282936204 -3.8650231540142777 1.0611619304959647 -1.1540296210472256
lfemur 2.9671832837565315 -2.652572638657937 -20.248366101605495
ltibia 52.60606583678004
lfoot -15.564513057652 -4.324209846556775
ltoes -6.1471697014238655
rfemur -14.944975845743619 0.638257987600108 23.957799388945613
rtibia 25.01647498649671
rfoot 0.5426535461632422 -9.141356426157502
rtoes 8.320474130512558
lowerback 10.509162213585691 -0.7322989451859225 -0.4042976835355453
upperback -0.04758334807899908 -0.9710658101694676 2.0227075518972404
thorax -6.104966712007475 -0.4615917097551636 2.728748072251032
lowerneck -16.773083831911663 -3.3763768901629287 -1.5018141123892672
upperneck 21.3728374569921 -4.606476146522307 1.0881070032471318
head 9.576434644467918 -2.164871148464025 0.011100442804866162
lclavicle -2.7003079518223936e-15 -2.1517147062537508e-15
lhumerus -26.539903719049207 1.384836495022674 81.73458466154182
lradius 26.707797401283155
lwrist 10.265812693145053
lhand -29.800408568061233 19.833297622608338
lfingers 7.125020000000001
lthumb -2.9822870927414824 50.40104966266701
rclavicle -2.7003079517683306e-15 -2.151714706216294e-15
rhumerus -31.1375706111884 -20.01360545875766 -77.59360112343528
rradius 25.575608830132865
rwrist 6.172566324841217
rhand -18.0527479700166 21.667423972503435
rfingers 7.125020000000001
rthumb 8.204047886546213 -7.496669358120137
